# xmcd
#
# Track frame offsets:
#	187
#	15305
#	26367
#	36395
#
# Disc length: 624 seconds
#
# Revision: 1
# Processed by: cddbd v1.5.1PL2 Copyright (c) Steve Scherf et al.
# Submitted via: audiograbber 1.83.01
#
DISCID=22026e04
DTITLE=Ace Cannon and Willie Mitchell - Vintage Gold
DYEAR=1989
DGENRE=Soul
TTITLE0=Ace Cannon - Tuff
TTITLE1=Ace Cannon - Blues (Stay Away From Me)
TTITLE2=Willie Mitchell - 20-75
TTITLE3=Willie Mitchell - Soul Serenade
EXTD=
EXTT0=
EXTT1=
EXTT2=
EXTT3=
PLAYORDER=
